<mxfile host="app.diagrams.net" modified="2024-03-14T09:46:17.321Z" agent="Mozilla/5.0 (Windows NT 10.0; Win64; x64) AppleWebKit/537.36 (KHTML, like Gecko) Chrome/122.0.0.0 Safari/537.36" etag="VesZ03Lw5Dj6bvaWihSB" version="24.0.6" type="github">
  <diagram name="Pagina-1" id="JMemaCQykt2h5w1tGcgR">
    <mxGraphModel dx="1375" dy="557" grid="1" gridSize="10" guides="1" tooltips="1" connect="1" arrows="1" fold="1" page="1" pageScale="1" pageWidth="827" pageHeight="1169" math="0" shadow="0">
      <root>
        <mxCell id="0" />
        <mxCell id="1" parent="0" />
        <mxCell id="P38HnjuJRTm02irLRb3f-3" style="edgeStyle=orthogonalEdgeStyle;rounded=0;orthogonalLoop=1;jettySize=auto;html=1;" edge="1" parent="1" source="P38HnjuJRTm02irLRb3f-1" target="P38HnjuJRTm02irLRb3f-2">
          <mxGeometry relative="1" as="geometry" />
        </mxCell>
        <mxCell id="P38HnjuJRTm02irLRb3f-14" style="edgeStyle=orthogonalEdgeStyle;rounded=0;orthogonalLoop=1;jettySize=auto;html=1;entryX=0;entryY=0.5;entryDx=0;entryDy=0;" edge="1" parent="1" source="P38HnjuJRTm02irLRb3f-1" target="P38HnjuJRTm02irLRb3f-13">
          <mxGeometry relative="1" as="geometry">
            <Array as="points">
              <mxPoint x="460" y="510" />
              <mxPoint x="570" y="510" />
              <mxPoint x="570" y="465" />
            </Array>
          </mxGeometry>
        </mxCell>
        <mxCell id="P38HnjuJRTm02irLRb3f-15" style="edgeStyle=orthogonalEdgeStyle;rounded=0;orthogonalLoop=1;jettySize=auto;html=1;entryX=0;entryY=0.5;entryDx=0;entryDy=0;" edge="1" parent="1" source="P38HnjuJRTm02irLRb3f-1" target="P38HnjuJRTm02irLRb3f-5">
          <mxGeometry relative="1" as="geometry">
            <Array as="points">
              <mxPoint x="553" y="460" />
              <mxPoint x="553" y="310" />
            </Array>
          </mxGeometry>
        </mxCell>
        <mxCell id="P38HnjuJRTm02irLRb3f-16" style="edgeStyle=orthogonalEdgeStyle;rounded=0;orthogonalLoop=1;jettySize=auto;html=1;entryX=0.5;entryY=1;entryDx=0;entryDy=0;" edge="1" parent="1" source="P38HnjuJRTm02irLRb3f-1" target="P38HnjuJRTm02irLRb3f-12">
          <mxGeometry relative="1" as="geometry">
            <Array as="points">
              <mxPoint x="500" y="440" />
              <mxPoint x="500" y="250" />
              <mxPoint x="655" y="250" />
            </Array>
          </mxGeometry>
        </mxCell>
        <mxCell id="P38HnjuJRTm02irLRb3f-19" style="edgeStyle=orthogonalEdgeStyle;rounded=0;orthogonalLoop=1;jettySize=auto;html=1;entryX=0.5;entryY=1;entryDx=0;entryDy=0;" edge="1" parent="1" source="P38HnjuJRTm02irLRb3f-1" target="P38HnjuJRTm02irLRb3f-10">
          <mxGeometry relative="1" as="geometry" />
        </mxCell>
        <mxCell id="P38HnjuJRTm02irLRb3f-1" value="&lt;font style=&quot;font-size: 18px;&quot;&gt;CLASSE&lt;/font&gt;" style="rounded=0;whiteSpace=wrap;html=1;" vertex="1" parent="1">
          <mxGeometry x="350" y="420" width="120" height="60" as="geometry" />
        </mxCell>
        <mxCell id="P38HnjuJRTm02irLRb3f-17" style="edgeStyle=orthogonalEdgeStyle;rounded=0;orthogonalLoop=1;jettySize=auto;html=1;entryX=0.5;entryY=1;entryDx=0;entryDy=0;" edge="1" parent="1" source="P38HnjuJRTm02irLRb3f-2" target="P38HnjuJRTm02irLRb3f-6">
          <mxGeometry relative="1" as="geometry">
            <Array as="points">
              <mxPoint x="160" y="185" />
              <mxPoint x="55" y="185" />
            </Array>
          </mxGeometry>
        </mxCell>
        <mxCell id="P38HnjuJRTm02irLRb3f-18" style="edgeStyle=orthogonalEdgeStyle;rounded=0;orthogonalLoop=1;jettySize=auto;html=1;entryX=0.5;entryY=1;entryDx=0;entryDy=0;" edge="1" parent="1" source="P38HnjuJRTm02irLRb3f-2" target="P38HnjuJRTm02irLRb3f-11">
          <mxGeometry relative="1" as="geometry">
            <Array as="points">
              <mxPoint x="220" y="185" />
              <mxPoint x="255" y="185" />
            </Array>
          </mxGeometry>
        </mxCell>
        <mxCell id="P38HnjuJRTm02irLRb3f-2" value="&lt;font style=&quot;font-size: 18px;&quot;&gt;sezione&lt;/font&gt;" style="ellipse;whiteSpace=wrap;html=1;" vertex="1" parent="1">
          <mxGeometry x="120" y="210" width="150" height="60" as="geometry" />
        </mxCell>
        <mxCell id="P38HnjuJRTm02irLRb3f-5" value="&lt;font style=&quot;font-size: 18px;&quot;&gt;numero_alunni&lt;/font&gt;" style="ellipse;whiteSpace=wrap;html=1;" vertex="1" parent="1">
          <mxGeometry x="632.5" y="280" width="150" height="60" as="geometry" />
        </mxCell>
        <mxCell id="P38HnjuJRTm02irLRb3f-6" value="&lt;font style=&quot;font-size: 18px;&quot;&gt;&lt;u&gt;anno_corso&lt;/u&gt;&lt;/font&gt;" style="ellipse;whiteSpace=wrap;html=1;" vertex="1" parent="1">
          <mxGeometry x="-20" y="100" width="150" height="60" as="geometry" />
        </mxCell>
        <mxCell id="P38HnjuJRTm02irLRb3f-11" value="&lt;font style=&quot;font-size: 18px;&quot;&gt;&lt;u&gt;lettera_corso&lt;/u&gt;&lt;/font&gt;" style="ellipse;whiteSpace=wrap;html=1;" vertex="1" parent="1">
          <mxGeometry x="180" y="100" width="150" height="60" as="geometry" />
        </mxCell>
        <mxCell id="P38HnjuJRTm02irLRb3f-12" value="&lt;font style=&quot;font-size: 18px;&quot;&gt;&lt;u&gt;anno_scolastico&lt;/u&gt;&lt;/font&gt;" style="ellipse;whiteSpace=wrap;html=1;" vertex="1" parent="1">
          <mxGeometry x="580" y="100" width="150" height="60" as="geometry" />
        </mxCell>
        <mxCell id="P38HnjuJRTm02irLRb3f-13" value="&lt;font style=&quot;font-size: 18px;&quot;&gt;num_fotocopie_totali&lt;/font&gt;" style="ellipse;whiteSpace=wrap;html=1;align=center;dashed=1;" vertex="1" parent="1">
          <mxGeometry x="610" y="430" width="195" height="70" as="geometry" />
        </mxCell>
        <mxCell id="P38HnjuJRTm02irLRb3f-23" style="edgeStyle=orthogonalEdgeStyle;rounded=0;orthogonalLoop=1;jettySize=auto;html=1;entryX=0;entryY=0.5;entryDx=0;entryDy=0;" edge="1" parent="1" source="P38HnjuJRTm02irLRb3f-20" target="P38HnjuJRTm02irLRb3f-21">
          <mxGeometry relative="1" as="geometry">
            <Array as="points">
              <mxPoint x="450" y="830" />
            </Array>
          </mxGeometry>
        </mxCell>
        <mxCell id="P38HnjuJRTm02irLRb3f-24" style="edgeStyle=orthogonalEdgeStyle;rounded=0;orthogonalLoop=1;jettySize=auto;html=1;entryX=0;entryY=0.5;entryDx=0;entryDy=0;" edge="1" parent="1" source="P38HnjuJRTm02irLRb3f-20" target="P38HnjuJRTm02irLRb3f-22">
          <mxGeometry relative="1" as="geometry">
            <Array as="points">
              <mxPoint x="450" y="950" />
            </Array>
          </mxGeometry>
        </mxCell>
        <mxCell id="P38HnjuJRTm02irLRb3f-27" style="edgeStyle=orthogonalEdgeStyle;rounded=0;orthogonalLoop=1;jettySize=auto;html=1;entryX=0.5;entryY=0;entryDx=0;entryDy=0;" edge="1" parent="1" source="P38HnjuJRTm02irLRb3f-20" target="P38HnjuJRTm02irLRb3f-25">
          <mxGeometry relative="1" as="geometry">
            <Array as="points">
              <mxPoint x="414" y="990" />
              <mxPoint x="575" y="990" />
            </Array>
          </mxGeometry>
        </mxCell>
        <mxCell id="P38HnjuJRTm02irLRb3f-28" style="edgeStyle=orthogonalEdgeStyle;rounded=0;orthogonalLoop=1;jettySize=auto;html=1;entryX=0.5;entryY=0;entryDx=0;entryDy=0;" edge="1" parent="1" source="P38HnjuJRTm02irLRb3f-20" target="P38HnjuJRTm02irLRb3f-26">
          <mxGeometry relative="1" as="geometry">
            <Array as="points">
              <mxPoint x="390" y="980" />
              <mxPoint x="295" y="980" />
            </Array>
          </mxGeometry>
        </mxCell>
        <mxCell id="P38HnjuJRTm02irLRb3f-21" value="&lt;span style=&quot;font-size: 18px;&quot;&gt;data&lt;/span&gt;" style="ellipse;whiteSpace=wrap;html=1;" vertex="1" parent="1">
          <mxGeometry x="580" y="800" width="150" height="60" as="geometry" />
        </mxCell>
        <mxCell id="P38HnjuJRTm02irLRb3f-22" value="&lt;font style=&quot;font-size: 18px;&quot;&gt;ora&lt;/font&gt;" style="ellipse;whiteSpace=wrap;html=1;" vertex="1" parent="1">
          <mxGeometry x="600" y="920" width="110" height="60" as="geometry" />
        </mxCell>
        <mxCell id="P38HnjuJRTm02irLRb3f-25" value="&lt;span style=&quot;font-size: 18px;&quot;&gt;quantitÃ &lt;/span&gt;" style="ellipse;whiteSpace=wrap;html=1;" vertex="1" parent="1">
          <mxGeometry x="500" y="1030" width="150" height="60" as="geometry" />
        </mxCell>
        <mxCell id="P38HnjuJRTm02irLRb3f-26" value="&lt;span style=&quot;font-size: 18px;&quot;&gt;tipo&lt;/span&gt;" style="ellipse;whiteSpace=wrap;html=1;" vertex="1" parent="1">
          <mxGeometry x="220" y="1030" width="150" height="60" as="geometry" />
        </mxCell>
        <mxCell id="P38HnjuJRTm02irLRb3f-31" value="" style="group" vertex="1" connectable="0" parent="1">
          <mxGeometry x="360" y="90" width="170" height="80" as="geometry" />
        </mxCell>
        <mxCell id="P38HnjuJRTm02irLRb3f-30" value="" style="ellipse;whiteSpace=wrap;html=1;" vertex="1" parent="P38HnjuJRTm02irLRb3f-31">
          <mxGeometry width="170" height="80" as="geometry" />
        </mxCell>
        <mxCell id="P38HnjuJRTm02irLRb3f-10" value="&lt;font style=&quot;font-size: 18px;&quot;&gt;&lt;u&gt;indirizzo_studio&lt;/u&gt;&lt;/font&gt;" style="ellipse;whiteSpace=wrap;html=1;" vertex="1" parent="P38HnjuJRTm02irLRb3f-31">
          <mxGeometry x="10" y="10" width="150" height="60" as="geometry" />
        </mxCell>
        <mxCell id="P38HnjuJRTm02irLRb3f-32" value="&lt;span style=&quot;font-size: 18px;&quot;&gt;formato&lt;/span&gt;" style="ellipse;whiteSpace=wrap;html=1;" vertex="1" parent="1">
          <mxGeometry x="130" y="865" width="150" height="70" as="geometry" />
        </mxCell>
        <mxCell id="P38HnjuJRTm02irLRb3f-33" value="&lt;span style=&quot;font-size: 18px;&quot;&gt;formato_retro&lt;/span&gt;" style="ellipse;whiteSpace=wrap;html=1;" vertex="1" parent="1">
          <mxGeometry x="110" y="730" width="150" height="70" as="geometry" />
        </mxCell>
        <mxCell id="P38HnjuJRTm02irLRb3f-36" value="" style="group" vertex="1" connectable="0" parent="1">
          <mxGeometry x="340" y="860" width="140" height="80" as="geometry" />
        </mxCell>
        <mxCell id="P38HnjuJRTm02irLRb3f-34" value="" style="rounded=0;whiteSpace=wrap;html=1;" vertex="1" parent="P38HnjuJRTm02irLRb3f-36">
          <mxGeometry width="140" height="80" as="geometry" />
        </mxCell>
        <mxCell id="P38HnjuJRTm02irLRb3f-20" value="&lt;span style=&quot;font-size: 18px;&quot;&gt;FOTOCOPIE&lt;/span&gt;" style="rounded=0;whiteSpace=wrap;html=1;" vertex="1" parent="P38HnjuJRTm02irLRb3f-36">
          <mxGeometry x="10" y="10" width="120" height="60" as="geometry" />
        </mxCell>
        <mxCell id="P38HnjuJRTm02irLRb3f-37" style="edgeStyle=orthogonalEdgeStyle;rounded=0;orthogonalLoop=1;jettySize=auto;html=1;entryX=1;entryY=0.5;entryDx=0;entryDy=0;" edge="1" parent="1" source="P38HnjuJRTm02irLRb3f-34" target="P38HnjuJRTm02irLRb3f-32">
          <mxGeometry relative="1" as="geometry" />
        </mxCell>
        <mxCell id="P38HnjuJRTm02irLRb3f-38" style="edgeStyle=orthogonalEdgeStyle;rounded=0;orthogonalLoop=1;jettySize=auto;html=1;entryX=0.5;entryY=1;entryDx=0;entryDy=0;" edge="1" parent="1" target="P38HnjuJRTm02irLRb3f-33">
          <mxGeometry relative="1" as="geometry">
            <mxPoint x="410" y="860" as="sourcePoint" />
            <Array as="points">
              <mxPoint x="370" y="860" />
              <mxPoint x="370" y="840" />
              <mxPoint x="275" y="840" />
            </Array>
          </mxGeometry>
        </mxCell>
        <mxCell id="P38HnjuJRTm02irLRb3f-40" style="edgeStyle=orthogonalEdgeStyle;rounded=0;orthogonalLoop=1;jettySize=auto;html=1;entryX=0.5;entryY=1;entryDx=0;entryDy=0;" edge="1" parent="1" source="P38HnjuJRTm02irLRb3f-39" target="P38HnjuJRTm02irLRb3f-1">
          <mxGeometry relative="1" as="geometry" />
        </mxCell>
        <mxCell id="P38HnjuJRTm02irLRb3f-41" style="edgeStyle=orthogonalEdgeStyle;rounded=0;orthogonalLoop=1;jettySize=auto;html=1;" edge="1" parent="1" source="P38HnjuJRTm02irLRb3f-39">
          <mxGeometry relative="1" as="geometry">
            <mxPoint x="410" y="860" as="targetPoint" />
          </mxGeometry>
        </mxCell>
        <mxCell id="P38HnjuJRTm02irLRb3f-39" value="&lt;font style=&quot;font-size: 18px;&quot;&gt;fa&lt;/font&gt;" style="rhombus;whiteSpace=wrap;html=1;" vertex="1" parent="1">
          <mxGeometry x="370" y="620" width="80" height="80" as="geometry" />
        </mxCell>
        <mxCell id="P38HnjuJRTm02irLRb3f-42" value="(0, N)" style="text;html=1;align=center;verticalAlign=middle;whiteSpace=wrap;rounded=0;" vertex="1" parent="1">
          <mxGeometry x="410" y="554" width="60" height="30" as="geometry" />
        </mxCell>
        <mxCell id="P38HnjuJRTm02irLRb3f-43" value="(1, 1)" style="text;html=1;align=center;verticalAlign=middle;whiteSpace=wrap;rounded=0;" vertex="1" parent="1">
          <mxGeometry x="410" y="730" width="60" height="30" as="geometry" />
        </mxCell>
        <mxCell id="P38HnjuJRTm02irLRb3f-44" value="RELAZIONE&lt;div&gt;1 : N&lt;/div&gt;" style="text;html=1;align=center;verticalAlign=middle;whiteSpace=wrap;rounded=0;" vertex="1" parent="1">
          <mxGeometry x="500" y="645" width="130" height="30" as="geometry" />
        </mxCell>
        <mxCell id="P38HnjuJRTm02irLRb3f-46" value="" style="endArrow=none;html=1;rounded=0;entryX=0.933;entryY=0.667;entryDx=0;entryDy=0;entryPerimeter=0;" edge="1" parent="1" target="P38HnjuJRTm02irLRb3f-12">
          <mxGeometry width="50" height="50" relative="1" as="geometry">
            <mxPoint x="10" y="140" as="sourcePoint" />
            <mxPoint x="170" y="140" as="targetPoint" />
            <Array as="points">
              <mxPoint x="80" y="140" />
            </Array>
          </mxGeometry>
        </mxCell>
      </root>
    </mxGraphModel>
  </diagram>
</mxfile>
